<svg xmlns="http://www.w3.org/2000/svg" width="13" height="13" viewBox="0 0 13 13">
    <g fill="#252424" fill-rule="evenodd" opacity=".5">
        <path d="M6.5 0a6.5 6.5 0 1 0 0 13 6.5 6.5 0 0 0 0-13m0 1C9.533 1 12 3.467 12 6.5S9.533 12 6.5 12A5.506 5.506 0 0 1 1 6.5C1 3.467 3.467 1 6.5 1"/>
        <path d="M8.457.301A6.468 6.468 0 0 1 10 4.501a6.5 6.5 0 0 1-8.457 6.197A6.48 6.48 0 0 0 6.5 13 6.5 6.5 0 0 0 8.457.301m2.422 2.862A5.506 5.506 0 0 1 6.5 12c-.471 0-.934-.06-1.38-.177C8.479 11.081 11 8.08 11 4.5c0-.45-.041-.898-.121-1.337"/>
    </g>
</svg>
