<svg xmlns="http://www.w3.org/2000/svg" width="30" height="30" viewBox="0 0 30 30">
    <g fill="none" fill-rule="evenodd">
        <path stroke="#000" stroke-linecap="round" d="M27.685 13.642H17.247a.89.89 0 0 1-.89-.89V2.314a.89.89 0 0 1 .89-.89h10.438a.89.89 0 0 1 .89.89v10.438a.89.89 0 0 1-.89.89z"/>
        <path fill="#000" d="M20.176 8.212a.425.425 0 0 1-.424-.424v-.51c0-.233.19-.423.424-.423h4.582c.233 0 .424.19.424.424v.509c0 .233-.191.424-.424.424h-4.582z"/>
        <path stroke="#000" stroke-linecap="round" d="M12.752 13.642H2.314a.89.89 0 0 1-.89-.89V2.314a.89.89 0 0 1 .89-.89h10.438a.89.89 0 0 1 .89.89v10.438a.89.89 0 0 1-.89.89z"/>
        <path fill="#000" d="M9.824 8.212H5.242a.425.425 0 0 1-.424-.424v-.51c0-.233.191-.423.424-.423h4.582c.233 0 .424.19.424.424v.509c0 .233-.19.424-.424.424"/>
        <path fill="#000" d="M6.854 9.824V5.242c0-.233.191-.424.425-.424h.509c.233 0 .424.191.424.424v4.582c0 .233-.19.424-.424.424h-.51a.425.425 0 0 1-.424-.424"/>
        <path stroke="#000" stroke-linecap="round" d="M27.685 28.576H17.247a.89.89 0 0 1-.89-.89V17.248a.89.89 0 0 1 .89-.89h10.438a.89.89 0 0 1 .89.89v10.438a.89.89 0 0 1-.89.89zM12.752 28.576H2.314a.89.89 0 0 1-.89-.89V17.248a.89.89 0 0 1 .89-.89h10.438a.89.89 0 0 1 .89.89v10.438a.89.89 0 0 1-.89.89z"/>
        <path fill="#000" d="M8.673 24.567l-3.24-3.24a.425.425 0 0 1 0-.6l.36-.36a.426.426 0 0 1 .6 0l3.24 3.24a.425.425 0 0 1 0 .6l-.36.36a.426.426 0 0 1-.6 0"/>
        <path fill="#000" d="M5.433 23.607l3.24-3.24a.425.425 0 0 1 .6 0l.36.36a.426.426 0 0 1 0 .6l-3.24 3.24a.425.425 0 0 1-.6 0l-.36-.36a.426.426 0 0 1 0-.6"/>
        <path stroke="#000" stroke-linecap="round" stroke-width="1.3" d="M19.54 19.412h3.403c.676 0 1.23.601 1.23 1.337 0 .734-.554 1.336-1.23 1.336h-2.258M20.685 22.085h2.713c.677 0 1.23.773 1.23 1.718s-.553 1.718-1.23 1.718H19.54M20.345 19.412v6.11M21.236 25.521v.933M22.679 25.521v.933M21.236 18.414v.933M22.679 18.414v.933"/>
    </g>
</svg>
