<svg xmlns="http://www.w3.org/2000/svg" width="14" height="14" viewBox="0 0 14 14">
    <g fill="none" fill-rule="evenodd">
        <path fill="#68686C" d="M7 3.16a3.841 3.841 0 1 0 0 7.682 3.841 3.841 0 0 0 0-7.683m0 1A2.844 2.844 0 0 1 9.841 7 2.845 2.845 0 0 1 7 9.841a2.845 2.845 0 0 1-2.841-2.84A2.844 2.844 0 0 1 7 4.158"/>
        <path stroke="#68686C" stroke-linecap="round" d="M7 .5v1.773M10.25 1.37l-.886 1.537M12.63 3.75l-1.537.886M13.5 7h-1.773M12.63 10.25l-1.537-.886M10.25 12.63l-.886-1.537M7 13.5v-1.773M3.75 12.63l.886-1.537M1.37 10.25l1.537-.886M.5 7h1.773M1.37 3.75l1.537.886M3.75 1.37l.886 1.537"/>
    </g>
</svg>
